<svg width="20" height="20" viewBox="0 0 20 20" fill="none" xmlns="http://www.w3.org/2000/svg">
<path fill-rule="evenodd" clip-rule="evenodd" d="M12.4283 2.07907C13.0856 1.80669 13.7902 1.6665 14.5017 1.6665C15.2133 1.6665 15.9178 1.80669 16.5752 2.07907C17.2324 2.35139 17.8296 2.75051 18.3325 3.25363C18.8356 3.75659 19.235 4.35401 19.5074 5.01124C19.7797 5.66858 19.9199 6.37315 19.9199 7.08469C19.9199 7.79623 19.7797 8.5008 19.5074 9.15815C19.235 9.81543 18.8358 10.4126 18.3326 10.9156C18.3326 10.9157 18.3327 10.9156 18.3326 10.9156L10.966 18.2823C10.6405 18.6077 10.1129 18.6077 9.78747 18.2823L2.4208 10.9156C1.40478 9.89959 0.833984 8.52157 0.833984 7.08469C0.833984 5.64782 1.40478 4.26979 2.4208 3.25377C3.43683 2.23775 4.81485 1.66695 6.25173 1.66695C7.6886 1.66695 9.06663 2.23775 10.0826 3.25377L10.3767 3.54785L10.6707 3.25391C10.6707 3.25386 10.6706 3.25395 10.6707 3.25391C11.1737 2.75072 11.771 2.35141 12.4283 2.07907ZM14.5017 3.33317C14.0091 3.33317 13.5213 3.43023 13.0663 3.61879C12.6112 3.80736 12.1977 4.08374 11.8495 4.43214L10.966 5.31561C10.6405 5.64105 10.1129 5.64105 9.78747 5.31561L8.90414 4.43228C8.20067 3.72882 7.24657 3.33362 6.25173 3.33362C5.25688 3.33362 4.30278 3.72882 3.59932 4.43228C2.89585 5.13574 2.50065 6.08984 2.50065 7.08469C2.50065 8.07954 2.89585 9.03364 3.59932 9.7371L10.3767 16.5145L17.1541 9.7371C17.5025 9.38886 17.7791 8.97525 17.9676 8.52016C18.1562 8.06507 18.2532 7.5773 18.2532 7.08469C18.2532 6.59209 18.1562 6.10431 17.9676 5.64922C17.7791 5.19414 17.5027 4.78066 17.1543 4.43242C16.806 4.08401 16.3923 3.80736 15.9372 3.61879C15.4821 3.43023 14.9943 3.33317 14.5017 3.33317Z" fill="#282828"/>
</svg>
