<svg width="30" height="30" viewBox="0 0 30 30" fill="none" xmlns="http://www.w3.org/2000/svg">
<path fill-rule="evenodd" clip-rule="evenodd" d="M14 7.77778C10.5636 7.77778 7.77778 10.5636 7.77778 14C7.77778 17.4364 10.5636 20.2222 14 20.2222C17.4364 20.2222 20.2222 17.4364 20.2222 14C20.2222 10.5636 17.4364 7.77778 14 7.77778ZM6 14C6 9.58172 9.58172 6 14 6C18.4183 6 22 9.58172 22 14C22 18.4183 18.4183 22 14 22C9.58172 22 6 18.4183 6 14Z" fill="black"/>
<path fill-rule="evenodd" clip-rule="evenodd" d="M18.2767 18.2767C18.6457 17.9078 19.244 17.9078 19.613 18.2767L23.7233 22.387C24.0922 22.756 24.0922 23.3543 23.7233 23.7233C23.3543 24.0922 22.756 24.0922 22.387 23.7233L18.2767 19.613C17.9078 19.244 17.9078 18.6457 18.2767 18.2767Z" fill="black"/>
</svg>
