<svg width="28" height="28" viewBox="0 0 28 28" fill="none" xmlns="http://www.w3.org/2000/svg">
<circle cx="14" cy="14" r="14" fill="#A10B0B"/>
<path d="M19.7997 17.0859V18.7117C19.8003 18.8626 19.7693 19.012 19.7087 19.1503C19.6481 19.2886 19.5593 19.4128 19.4478 19.5148C19.3364 19.6168 19.2048 19.6945 19.0616 19.7429C18.9183 19.7912 18.7665 19.8092 18.6159 19.7956C16.9449 19.6144 15.3398 19.0445 13.9296 18.1318C12.6176 17.2998 11.5052 16.1896 10.6715 14.8802C9.75376 13.4663 9.18265 11.8566 9.00441 10.1815C8.99084 10.0316 9.00868 9.88058 9.05681 9.73798C9.10493 9.59537 9.18229 9.46433 9.28394 9.3532C9.38559 9.24206 9.50931 9.15327 9.64723 9.09247C9.78515 9.03167 9.93424 9.00019 10.085 9.00005H11.7141C11.9776 8.99746 12.2331 9.0906 12.4329 9.2621C12.6327 9.4336 12.7632 9.67176 12.8001 9.9322C12.8689 10.4525 12.9964 10.9634 13.1802 11.4551C13.2533 11.649 13.2691 11.8599 13.2258 12.0625C13.1825 12.2652 13.0819 12.4512 12.9359 12.5986L12.2462 13.2868C13.0193 14.6436 14.1449 15.767 15.5044 16.5385L16.194 15.8502C16.3416 15.7045 16.528 15.6041 16.7311 15.5609C16.9342 15.5177 17.1454 15.5334 17.3398 15.6064C17.8324 15.7898 18.3443 15.9171 18.8657 15.9857C19.1295 16.0229 19.3704 16.1555 19.5426 16.3583C19.7148 16.5612 19.8063 16.8201 19.7997 17.0859Z" fill="white"/>
</svg>
